# Wavefront OBJ file automatically generated by Tiled2Unity

# Vertices (Count = 253)
v -768 -352 0
v -800 -352 0
v -800 -320 0
v -768 -320 0
v -832 -352 0
v -832 -320 0
v -864 -352 0
v -864 -320 0
v -704 -384 0
v -736 -384 0
v -736 -352 0
v -704 -352 0
v -768 -384 0
v -800 -384 0
v -832 -384 0
v -864 -384 0
v -608 -416 0
v -640 -416 0
v -640 -384 0
v -608 -384 0
v -672 -416 0
v -672 -384 0
v -704 -416 0
v -736 -416 0
v -768 -416 0
v -800 -416 0
v -832 -416 0
v -864 -416 0
v -608 -448 0
v -640 -448 0
v -672 -448 0
v -704 -448 0
v -736 -448 0
v -768 -448 0
v -800 -448 0
v -832 -448 0
v -864 -448 0
v -608 -480 0
v -640 -480 0
v -672 -480 0
v -704 -480 0
v -736 -480 0
v -768 -480 0
v -800 -480 0
v -832 -480 0
v -864 -480 0
v 0 -384 0
v -32 -384 0
v -32 -352 0
v 0 -352 0
v -64 -384 0
v -64 -352 0
v -96 -384 0
v -96 -352 0
v -128 -384 0
v -128 -352 0
v -160 -384 0
v -160 -352 0
v -192 -384 0
v -192 -352 0
v -224 -384 0
v -224 -352 0
v -256 -384 0
v -256 -352 0
v -288 -384 0
v -288 -352 0
v -320 -384 0
v -320 -352 0
v -352 -384 0
v -352 -352 0
v -384 -384 0
v -384 -352 0
v 0 -416 0
v -32 -416 0
v -64 -416 0
v -96 -416 0
v -128 -416 0
v -160 -416 0
v -192 -416 0
v -224 -416 0
v -256 -416 0
v -288 -416 0
v -320 -416 0
v -352 -416 0
v -384 -416 0
v -416 -416 0
v -416 -384 0
v -448 -416 0
v -448 -384 0
v 0 -448 0
v -32 -448 0
v -64 -448 0
v -96 -448 0
v -128 -448 0
v -160 -448 0
v -192 -448 0
v -224 -448 0
v -256 -448 0
v -288 -448 0
v -320 -448 0
v -352 -448 0
v -384 -448 0
v -416 -448 0
v -448 -448 0
v -480 -448 0
v -480 -416 0
v -512 -448 0
v -512 -416 0
v 0 -480 0
v -32 -480 0
v -64 -480 0
v -96 -480 0
v -128 -480 0
v -160 -480 0
v -192 -480 0
v -224 -480 0
v -256 -480 0
v -288 -480 0
v -320 -480 0
v -352 -480 0
v -384 -480 0
v -416 -480 0
v -448 -480 0
v -480 -480 0
v -512 -480 0
v -544 -480 0
v -544 -448 0
v -576 -480 0
v -576 -448 0
v -896 -480 0
v -896 -448 0
v -928 -480 0
v -928 -448 0
v 0 -512 0
v -32 -512 0
v -64 -512 0
v -96 -512 0
v -128 -512 0
v -160 -512 0
v -192 -512 0
v -224 -512 0
v -256 -512 0
v -288 -512 0
v -320 -512 0
v -352 -512 0
v -384 -512 0
v -416 -512 0
v -448 -512 0
v -480 -512 0
v -512 -512 0
v -544 -512 0
v -576 -512 0
v -608 -512 0
v -640 -512 0
v -672 -512 0
v -704 -512 0
v -736 -512 0
v -768 -512 0
v -800 -512 0
v -832 -512 0
v -864 -512 0
v -896 -512 0
v -928 -512 0
v 0 -544 0
v -32 -544 0
v -64 -544 0
v -96 -544 0
v -128 -544 0
v -160 -544 0
v -192 -544 0
v -224 -544 0
v -256 -544 0
v -288 -544 0
v -320 -544 0
v -352 -544 0
v -384 -544 0
v -416 -544 0
v -448 -544 0
v -480 -544 0
v -512 -544 0
v -544 -544 0
v -576 -544 0
v -608 -544 0
v -640 -544 0
v -672 -544 0
v -704 -544 0
v -736 -544 0
v -768 -544 0
v -800 -544 0
v -832 -544 0
v -864 -544 0
v -896 -544 0
v -928 -544 0
v 0 -576 0
v -32 -576 0
v -64 -576 0
v -96 -576 0
v -128 -576 0
v -160 -576 0
v -192 -576 0
v -224 -576 0
v -256 -576 0
v -288 -576 0
v -320 -576 0
v -352 -576 0
v -384 -576 0
v -416 -576 0
v -448 -576 0
v -480 -576 0
v -512 -576 0
v -544 -576 0
v -576 -576 0
v -608 -576 0
v -640 -576 0
v -672 -576 0
v -704 -576 0
v -736 -576 0
v -768 -576 0
v -800 -576 0
v -832 -576 0
v -864 -576 0
v -896 -576 0
v -928 -576 0
v 0 -608 0
v -32 -608 0
v -64 -608 0
v -96 -608 0
v -128 -608 0
v -160 -608 0
v -192 -608 0
v -224 -608 0
v -256 -608 0
v -288 -608 0
v -320 -608 0
v -352 -608 0
v -384 -608 0
v -416 -608 0
v -448 -608 0
v -480 -608 0
v -512 -608 0
v -544 -608 0
v -576 -608 0
v -608 -608 0
v -640 -608 0
v -672 -608 0
v -704 -608 0
v -736 -608 0
v -768 -608 0
v -800 -608 0
v -832 -608 0
v -864 -608 0
v -896 -608 0
v -928 -608 0

# Texture Coorindates (Count = 128)
vt 0.2501221 0.1429792
vt 0.375 0.1429792
vt 0.375 0.2857143
vt 0.2501221 0.2857143
vt 0.3751221 0.8572649
vt 0.5 0.8572649
vt 0.5 1
vt 0.3751221 1
vt 0.5001221 0.5715507
vt 0.625 0.5715507
vt 0.625 0.7142857
vt 0.5001221 0.7142857
vt 0.5001221 0.1429792
vt 0.625 0.1429792
vt 0.625 0.2857143
vt 0.5001221 0.2857143
vt 0.2501221 0.0001220703
vt 0.375 0.0001220703
vt 0.375 0.1428571
vt 0.2501221 0.1428571
vt 0.3751221 0.7144078
vt 0.5 0.7144078
vt 0.5 0.8571429
vt 0.3751221 0.8571429
vt 0.5001221 0.4286935
vt 0.625 0.4286935
vt 0.625 0.5714286
vt 0.5001221 0.5714286
vt 0.0001220703 0.5715507
vt 0.125 0.5715507
vt 0.125 0.7142857
vt 0.0001220703 0.7142857
vt 0.5001221 0.8572649
vt 0.625 0.8572649
vt 0.625 1
vt 0.5001221 1
vt 0.5001221 0.0001220703
vt 0.625 0.0001220703
vt 0.625 0.1428571
vt 0.5001221 0.1428571
vt 0.1251221 0.1429792
vt 0.25 0.1429792
vt 0.25 0.2857143
vt 0.1251221 0.2857143
vt 0.7501221 0.5715507
vt 0.875 0.5715507
vt 0.875 0.7142857
vt 0.7501221 0.7142857
vt 0.0001220703 0.4286935
vt 0.125 0.4286935
vt 0.125 0.5714286
vt 0.0001220703 0.5714286
vt 0.5001221 0.7144078
vt 0.625 0.7144078
vt 0.625 0.8571429
vt 0.5001221 0.8571429
vt 0.6251221 0.4286935
vt 0.75 0.4286935
vt 0.75 0.5714286
vt 0.6251221 0.5714286
vt 0.1251221 0.2858364
vt 0.25 0.2858364
vt 0.25 0.4285714
vt 0.1251221 0.4285714
vt 0.7501221 0.4286935
vt 0.875 0.4286935
vt 0.875 0.5714286
vt 0.7501221 0.5714286
vt 0.2501221 0.8572649
vt 0.375 0.8572649
vt 0.375 1
vt 0.2501221 1
vt 0.6251221 0.8572649
vt 0.75 0.8572649
vt 0.75 1
vt 0.6251221 1
vt 0.7501221 0.8572649
vt 0.875 0.8572649
vt 0.875 1
vt 0.7501221 1
vt 0.1251221 0.8572649
vt 0.25 0.8572649
vt 0.25 1
vt 0.1251221 1
vt 0.3751221 0.1429792
vt 0.5 0.1429792
vt 0.5 0.2857143
vt 0.3751221 0.2857143
vt 0.2501221 0.7144078
vt 0.375 0.7144078
vt 0.375 0.8571429
vt 0.2501221 0.8571429
vt 0.6251221 0.7144078
vt 0.75 0.7144078
vt 0.75 0.8571429
vt 0.6251221 0.8571429
vt 0.7501221 0.7144078
vt 0.875 0.7144078
vt 0.875 0.8571429
vt 0.7501221 0.8571429
vt 0.1251221 0.7144078
vt 0.25 0.7144078
vt 0.25 0.8571429
vt 0.1251221 0.8571429
vt 0.3751221 0.0001220703
vt 0.5 0.0001220703
vt 0.5 0.1428571
vt 0.3751221 0.1428571
vt 0.6251221 0.1429792
vt 0.75 0.1429792
vt 0.75 0.2857143
vt 0.6251221 0.2857143
vt 0.2501221 0.2858364
vt 0.375 0.2858364
vt 0.375 0.4285714
vt 0.2501221 0.4285714
vt 0.5001221 0.2858364
vt 0.625 0.2858364
vt 0.625 0.4285714
vt 0.5001221 0.4285714
vt 0.3751221 0.2858364
vt 0.5 0.2858364
vt 0.5 0.4285714
vt 0.3751221 0.4285714
vt 0.6251221 0.0001220703
vt 0.75 0.0001220703
vt 0.75 0.1428571
vt 0.6251221 0.1428571

# Normal
vn 0 0 -1

# Groups (Count = 2)
g mesh_[00]_[00]
f  1/1/1  2/2/1  3/3/1  4/4/1 
f  2/5/1  5/6/1  6/7/1  3/8/1 
f  5/9/1  7/10/1  8/11/1  6/12/1 
f  9/1/1  10/2/1  11/3/1  12/4/1 
f  10/13/1  13/14/1  1/15/1  11/16/1 
f  13/17/1  14/18/1  2/19/1  1/20/1 
f  14/21/1  15/22/1  5/23/1  2/24/1 
f  15/25/1  16/26/1  7/27/1  5/28/1 
f  17/29/1  18/30/1  19/31/1  20/32/1 
f  18/33/1  21/34/1  22/35/1  19/36/1 
f  21/13/1  23/14/1  9/15/1  22/16/1 
f  23/17/1  24/18/1  10/19/1  9/20/1 
f  24/37/1  25/38/1  13/39/1  10/40/1 
f  25/41/1  26/42/1  14/43/1  13/44/1 
f  26/41/1  27/42/1  15/43/1  14/44/1 
f  27/45/1  28/46/1  16/47/1  15/48/1 
f  29/49/1  30/50/1  18/51/1  17/52/1 
f  30/53/1  31/54/1  21/55/1  18/56/1 
f  31/37/1  32/38/1  23/39/1  21/40/1 
f  32/41/1  33/42/1  24/43/1  23/44/1 
f  33/41/1  34/42/1  25/43/1  24/44/1 
f  34/41/1  35/42/1  26/43/1  25/44/1 
f  35/41/1  36/42/1  27/43/1  26/44/1 
f  36/45/1  37/46/1  28/47/1  27/48/1 
f  38/57/1  39/58/1  30/59/1  29/60/1 
f  39/61/1  40/62/1  31/63/1  30/64/1 
f  40/41/1  41/42/1  32/43/1  31/44/1 
f  41/41/1  42/42/1  33/43/1  32/44/1 
f  42/41/1  43/42/1  34/43/1  33/44/1 
f  43/41/1  44/42/1  35/43/1  34/44/1 
f  44/41/1  45/42/1  36/43/1  35/44/1 
f  45/65/1  46/66/1  37/67/1  36/68/1 
g mesh_[01]_[00]
f  47/69/1  48/70/1  49/71/1  50/72/1 
f  48/5/1  51/6/1  52/7/1  49/8/1 
f  51/33/1  53/34/1  54/35/1  52/36/1 
f  53/73/1  55/74/1  56/75/1  54/76/1 
f  55/77/1  57/78/1  58/79/1  56/80/1 
f  57/69/1  59/70/1  60/71/1  58/72/1 
f  59/5/1  61/6/1  62/7/1  60/8/1 
f  61/33/1  63/34/1  64/35/1  62/36/1 
f  63/73/1  65/74/1  66/75/1  64/76/1 
f  65/77/1  67/78/1  68/79/1  66/80/1 
f  67/81/1  69/82/1  70/83/1  68/84/1 
f  69/85/1  71/86/1  72/87/1  70/88/1 
f  73/89/1  74/90/1  48/91/1  47/92/1 
f  74/21/1  75/22/1  51/23/1  48/24/1 
f  75/53/1  76/54/1  53/55/1  51/56/1 
f  76/93/1  77/94/1  55/95/1  53/96/1 
f  77/97/1  78/98/1  57/99/1  55/100/1 
f  78/89/1  79/90/1  59/91/1  57/92/1 
f  79/21/1  80/22/1  61/23/1  59/24/1 
f  80/53/1  81/54/1  63/55/1  61/56/1 
f  81/93/1  82/94/1  65/95/1  63/96/1 
f  82/97/1  83/98/1  67/99/1  65/100/1 
f  83/101/1  84/102/1  69/103/1  67/104/1 
f  84/105/1  85/106/1  71/107/1  69/108/1 
f  85/109/1  86/110/1  87/111/1  71/112/1 
f  86/85/1  88/86/1  89/87/1  87/88/1 
f  90/61/1  91/62/1  74/63/1  73/64/1 
f  91/113/1  92/114/1  75/115/1  74/116/1 
f  92/41/1  93/42/1  76/43/1  75/44/1 
f  93/117/1  94/118/1  77/119/1  76/120/1 
f  94/61/1  95/62/1  78/63/1  77/64/1 
f  95/113/1  96/114/1  79/115/1  78/116/1 
f  96/121/1  97/122/1  80/123/1  79/124/1 
f  97/117/1  98/118/1  81/119/1  80/120/1 
f  98/61/1  99/62/1  82/63/1  81/64/1 
f  99/113/1  100/114/1  83/115/1  82/116/1 
f  100/41/1  101/42/1  84/43/1  83/44/1 
f  101/117/1  102/118/1  85/119/1  84/120/1 
f  102/125/1  103/126/1  86/127/1  85/128/1 
f  103/105/1  104/106/1  88/107/1  86/108/1 
f  104/109/1  105/110/1  106/111/1  88/112/1 
f  105/85/1  107/86/1  108/87/1  106/88/1 
f  109/41/1  110/42/1  91/43/1  90/44/1 
f  110/61/1  111/62/1  92/63/1  91/64/1 
f  111/61/1  112/62/1  93/63/1  92/64/1 
f  112/113/1  113/114/1  94/115/1  93/116/1 
f  113/121/1  114/122/1  95/123/1  94/124/1 
f  114/117/1  115/118/1  96/119/1  95/120/1 
f  115/41/1  116/42/1  97/43/1  96/44/1 
f  116/113/1  117/114/1  98/115/1  97/116/1 
f  117/41/1  118/42/1  99/43/1  98/44/1 
f  118/117/1  119/118/1  100/119/1  99/120/1 
f  119/61/1  120/62/1  101/63/1  100/64/1 
f  120/113/1  121/114/1  102/115/1  101/116/1 
f  121/41/1  122/42/1  103/43/1  102/44/1 
f  122/117/1  123/118/1  104/119/1  103/120/1 
f  123/125/1  124/126/1  105/127/1  104/128/1 
f  124/105/1  125/106/1  107/107/1  105/108/1 
f  125/109/1  126/110/1  127/111/1  107/112/1 
f  126/81/1  128/82/1  129/83/1  127/84/1 
f  128/69/1  38/70/1  29/71/1  129/72/1 
f  38/5/1  39/6/1  30/7/1  29/8/1 
f  39/33/1  40/34/1  31/35/1  30/36/1 
f  40/73/1  41/74/1  32/75/1  31/76/1 
f  41/77/1  42/78/1  33/79/1  32/80/1 
f  42/81/1  43/82/1  34/83/1  33/84/1 
f  43/69/1  44/70/1  35/71/1  34/72/1 
f  44/5/1  45/6/1  36/7/1  35/8/1 
f  45/33/1  46/34/1  37/35/1  36/36/1 
f  46/73/1  130/74/1  131/75/1  37/76/1 
f  130/9/1  132/10/1  133/11/1  131/12/1 
f  134/41/1  135/42/1  110/43/1  109/44/1 
f  135/117/1  136/118/1  111/119/1  110/120/1 
f  136/41/1  137/42/1  112/43/1  111/44/1 
f  137/61/1  138/62/1  113/63/1  112/64/1 
f  138/113/1  139/114/1  114/115/1  113/116/1 
f  139/41/1  140/42/1  115/43/1  114/44/1 
f  140/61/1  141/62/1  116/63/1  115/64/1 
f  141/113/1  142/114/1  117/115/1  116/116/1 
f  142/41/1  143/42/1  118/43/1  117/44/1 
f  143/117/1  144/118/1  119/119/1  118/120/1 
f  144/61/1  145/62/1  120/63/1  119/64/1 
f  145/113/1  146/114/1  121/115/1  120/116/1 
f  146/41/1  147/42/1  122/43/1  121/44/1 
f  147/41/1  148/42/1  123/43/1  122/44/1 
f  148/121/1  149/122/1  124/123/1  123/124/1 
f  149/117/1  150/118/1  125/119/1  124/120/1 
f  150/125/1  151/126/1  126/127/1  125/128/1 
f  151/101/1  152/102/1  128/103/1  126/104/1 
f  152/89/1  153/90/1  38/91/1  128/92/1 
f  153/21/1  154/22/1  39/23/1  38/24/1 
f  154/53/1  155/54/1  40/55/1  39/56/1 
f  155/93/1  156/94/1  41/95/1  40/96/1 
f  156/97/1  157/98/1  42/99/1  41/100/1 
f  157/101/1  158/102/1  43/103/1  42/104/1 
f  158/89/1  159/90/1  44/91/1  43/92/1 
f  159/21/1  160/22/1  45/23/1  44/24/1 
f  160/53/1  161/54/1  46/55/1  45/56/1 
f  161/93/1  162/94/1  130/95/1  46/96/1 
f  162/25/1  163/26/1  132/27/1  130/28/1 
f  164/61/1  165/62/1  135/63/1  134/64/1 
f  165/41/1  166/42/1  136/43/1  135/44/1 
f  166/121/1  167/122/1  137/123/1  136/124/1 
f  167/41/1  168/42/1  138/43/1  137/44/1 
f  168/61/1  169/62/1  139/63/1  138/64/1 
f  169/113/1  170/114/1  140/115/1  139/116/1 
f  170/121/1  171/122/1  141/123/1  140/124/1 
f  171/117/1  172/118/1  142/119/1  141/120/1 
f  172/61/1  173/62/1  143/63/1  142/64/1 
f  173/113/1  174/114/1  144/115/1  143/116/1 
f  174/41/1  175/42/1  145/43/1  144/44/1 
f  175/41/1  176/42/1  146/43/1  145/44/1 
f  176/41/1  177/42/1  147/43/1  146/44/1 
f  177/113/1  178/114/1  148/115/1  147/116/1 
f  178/121/1  179/122/1  149/123/1  148/124/1 
f  179/117/1  180/118/1  150/119/1  149/120/1 
f  180/61/1  181/62/1  151/63/1  150/64/1 
f  181/113/1  182/114/1  152/115/1  151/116/1 
f  182/41/1  183/42/1  153/43/1  152/44/1 
f  183/117/1  184/118/1  154/119/1  153/120/1 
f  184/61/1  185/62/1  155/63/1  154/64/1 
f  185/113/1  186/114/1  156/115/1  155/116/1 
f  186/41/1  187/42/1  157/43/1  156/44/1 
f  187/117/1  188/118/1  158/119/1  157/120/1 
f  188/61/1  189/62/1  159/63/1  158/64/1 
f  189/113/1  190/114/1  160/115/1  159/116/1 
f  190/41/1  191/42/1  161/43/1  160/44/1 
f  191/117/1  192/118/1  162/119/1  161/120/1 
f  192/45/1  193/46/1  163/47/1  162/48/1 
f  194/61/1  195/62/1  165/63/1  164/64/1 
f  195/113/1  196/114/1  166/115/1  165/116/1 
f  196/41/1  197/42/1  167/43/1  166/44/1 
f  197/117/1  198/118/1  168/119/1  167/120/1 
f  198/41/1  199/42/1  169/43/1  168/44/1 
f  199/61/1  200/62/1  170/63/1  169/64/1 
f  200/61/1  201/62/1  171/63/1  170/64/1 
f  201/61/1  202/62/1  172/63/1  171/64/1 
f  202/61/1  203/62/1  173/63/1  172/64/1 
f  203/41/1  204/42/1  174/43/1  173/44/1 
f  204/121/1  205/122/1  175/123/1  174/124/1 
f  205/117/1  206/118/1  176/119/1  175/120/1 
f  206/61/1  207/62/1  177/63/1  176/64/1 
f  207/113/1  208/114/1  178/115/1  177/116/1 
f  208/41/1  209/42/1  179/43/1  178/44/1 
f  209/117/1  210/118/1  180/119/1  179/120/1 
f  210/61/1  211/62/1  181/63/1  180/64/1 
f  211/113/1  212/114/1  182/115/1  181/116/1 
f  212/41/1  213/42/1  183/43/1  182/44/1 
f  213/61/1  214/62/1  184/63/1  183/64/1 
f  214/41/1  215/42/1  185/43/1  184/44/1 
f  215/41/1  216/42/1  186/43/1  185/44/1 
f  216/117/1  217/118/1  187/119/1  186/120/1 
f  217/117/1  218/118/1  188/119/1  187/120/1 
f  218/41/1  219/42/1  189/43/1  188/44/1 
f  219/113/1  220/114/1  190/115/1  189/116/1 
f  220/41/1  221/42/1  191/43/1  190/44/1 
f  221/117/1  222/118/1  192/119/1  191/120/1 
f  222/45/1  223/46/1  193/47/1  192/48/1 
f  224/61/1  225/62/1  195/63/1  194/64/1 
f  225/113/1  226/114/1  196/115/1  195/116/1 
f  226/41/1  227/42/1  197/43/1  196/44/1 
f  227/117/1  228/118/1  198/119/1  197/120/1 
f  228/117/1  229/118/1  199/119/1  198/120/1 
f  229/117/1  230/118/1  200/119/1  199/120/1 
f  230/117/1  231/118/1  201/119/1  200/120/1 
f  231/117/1  232/118/1  202/119/1  201/120/1 
f  232/61/1  233/62/1  203/63/1  202/64/1 
f  233/61/1  234/62/1  204/63/1  203/64/1 
f  234/61/1  235/62/1  205/63/1  204/64/1 
f  235/61/1  236/62/1  206/63/1  205/64/1 
f  236/61/1  237/62/1  207/63/1  206/64/1 
f  237/113/1  238/114/1  208/115/1  207/116/1 
f  238/121/1  239/122/1  209/123/1  208/124/1 
f  239/117/1  240/118/1  210/119/1  209/120/1 
f  240/61/1  241/62/1  211/63/1  210/64/1 
f  241/113/1  242/114/1  212/115/1  211/116/1 
f  242/121/1  243/122/1  213/123/1  212/124/1 
f  243/61/1  244/62/1  214/63/1  213/64/1 
f  244/113/1  245/114/1  215/115/1  214/116/1 
f  245/121/1  246/122/1  216/123/1  215/124/1 
f  246/61/1  247/62/1  217/63/1  216/64/1 
f  247/113/1  248/114/1  218/115/1  217/116/1 
f  248/61/1  249/62/1  219/63/1  218/64/1 
f  249/113/1  250/114/1  220/115/1  219/116/1 
f  250/41/1  251/42/1  221/43/1  220/44/1 
f  251/117/1  252/118/1  222/119/1  221/120/1 
f  252/65/1  253/66/1  223/67/1  222/68/1 
